<svg width="172" height="30" viewBox="0 0 172 30" fill="none" xmlns="http://www.w3.org/2000/svg">
<path d="M15.133 30C23.4908 30 30.2661 23.2843 30.2661 15C30.2661 6.71573 23.4908 0 15.133 0C6.7753 0 0 6.71573 0 15C0 23.2843 6.7753 30 15.133 30Z" fill="#40E0D0"/>
<path d="M24.4924 11.4457C27.6811 11.4457 30.2661 8.88352 30.2661 5.72287C30.2661 2.56221 27.6811 0 24.4924 0C21.3038 0 18.7188 2.56221 18.7188 5.72287C18.7188 8.88352 21.3038 11.4457 24.4924 11.4457Z" fill="#F2F2F2"/>
<mask id="mask0_8826_71885" style="mask-type:alpha" maskUnits="userSpaceOnUse" x="0" y="0" width="31" height="30">
<path d="M15.133 30C23.4908 30 30.2661 23.2843 30.2661 15C30.2661 6.71573 23.4908 0 15.133 0C6.7753 0 0 6.71573 0 15C0 23.2843 6.7753 30 15.133 30Z" fill="#40E0D0"/>
</mask>
<g mask="url(#mask0_8826_71885)">
<path d="M13.4029 10.4491C11.9869 11.8611 10.9684 12.9446 10.869 13.1416C10.5212 13.8312 10.4136 14.3893 10.455 15.3087C10.5047 16.2855 10.7282 16.9915 11.192 17.6646L11.457 18.0422L7.82179 21.6458L4.06081 25.3741L4.32642 25.6845L4.63397 25.9755L4.93454 26.2872L5.26148 26.5644L9.02247 22.8361L12.6576 19.2325L13.2373 19.528C13.999 19.922 14.6367 20.0862 15.4895 20.0862C16.3094 20.0862 17.0877 19.8809 17.6425 19.5116C17.8495 19.372 19.0336 18.2557 20.2757 17.0243L22.528 14.7833L21.9898 14.2498L21.4516 13.7244L19.191 15.949C17.1208 17.9847 16.9055 18.1818 16.4915 18.3131C14.6201 18.9123 12.2436 17.1885 12.1111 15.1199C12.0863 14.6849 12.1111 14.3975 12.2187 14.0774C12.3512 13.6752 12.5582 13.4453 14.6118 11.3932L16.8559 9.16039L16.3176 8.62683L15.7794 8.09327L13.4029 10.4491Z" fill="#F2F2F2"/>
</g>
<path d="M43.0738 14.5829H51.0685V16.4707H43.0738V14.5829ZM43.2953 22.6829H41.0807V7.31707H52.0208V9.22683H43.2953V22.6829ZM56.9099 22.6829V7.31707H59.1244V22.6829H56.9099ZM65.5372 22.6829V7.31707H67.7518V20.7732H76.1451V22.6829H65.5372ZM78.1109 22.6829L85.1311 7.31707H87.3236L94.366 22.6829H92.0407L85.7734 8.54634H86.6592L80.3919 22.6829H78.1109ZM81.1006 18.8415L81.6985 17.0854H90.424L91.0662 18.8415H81.1006ZM98.4497 22.6829V7.31707H100.266L107.219 18.9293H106.245L113.11 7.31707H114.926L114.948 22.6829H112.822L112.8 10.6317H113.31L107.197 20.8171H106.179L100.022 10.6317H100.576V22.6829H98.4497ZM123.388 13.9463H131.361V15.8122H123.388V13.9463ZM123.588 20.7732H132.623V22.6829H121.373V7.31707H132.313V9.22683H123.588V20.7732ZM137.98 22.6829V7.31707H139.796L150.05 19.939H149.097V7.31707H151.312V22.6829H149.496L139.243 10.061H140.195V22.6829H137.98ZM160.802 22.6829V9.22683H155.487V7.31707H168.31V9.22683H162.995V22.6829H160.802Z" fill="#40E0D0"/>
</svg>
