<svg width="377" height="94" viewBox="0 0 377 94" fill="none" xmlns="http://www.w3.org/2000/svg">
<path d="M87.9606 10.8C84.6939 10.8 82.3605 11.4 80.9605 12.6C79.8939 13.5333 79.1272 15 78.6605 17L61.1606 78.5H58.7605C56.3606 70.0333 53.9606 61.6667 51.5606 53.4C49.1606 45.1333 46.7605 36.7333 44.3605 28.2C41.8939 36.7333 39.4272 45.1333 36.9605 53.4C34.5605 61.6667 32.1272 70.0333 29.6605 78.5H27.1605L9.46055 14.9C9.06055 13.4333 8.36055 12.4333 7.36055 11.9C6.02721 11.1667 3.76055 10.8 0.560547 10.8V7.6H25.6605V10.8C23.3272 10.8 21.4272 10.8667 19.9605 11C18.5605 11.1333 17.6272 11.4 17.1605 11.8C16.7605 12.1333 16.5272 12.6333 16.4605 13.3C16.4605 13.9 16.5272 14.5 16.6605 15.1L29.8605 63.6C31.9272 56.3333 33.9605 49.1 35.9605 41.9C38.0272 34.7 40.0939 27.4667 42.1605 20.2L40.8605 14.9C40.6605 14.1667 40.3605 13.5333 39.9605 13C39.5605 12.4667 39.1272 12.0667 38.6606 11.8C37.5939 11.1333 35.3272 10.8 31.8605 10.8V7.6H57.1606V10.8C54.6939 10.8 52.7605 10.8667 51.3605 11C49.9605 11.1333 49.0272 11.4 48.5605 11.8C48.1605 12.1333 47.8605 12.5667 47.6606 13.1C47.5272 13.5667 47.5939 14.2333 47.8605 15.1L61.3605 63.8L74.6606 16.4C74.8605 15.6 74.9939 14.8333 75.0606 14.1C75.1272 13.3 74.8939 12.6333 74.3605 12.1C73.4939 11.2333 70.7939 10.8 66.2606 10.8V7.6H87.9606V10.8ZM90.2949 26.2227C91.5319 26.2878 92.6387 26.3203 93.6152 26.3203C94.6569 26.2552 95.5358 26.1901 96.252 26.125C97.0983 26.0599 97.847 25.9948 98.498 25.9297C99.4746 25.7995 100.484 25.6367 101.525 25.4414C102.437 25.3112 103.381 25.1484 104.357 24.9531C105.399 24.6927 106.408 24.3997 107.385 24.0742C106.994 25.0508 106.669 25.8971 106.408 26.6133C106.148 27.3294 105.952 27.9479 105.822 28.4688C105.627 29.0547 105.529 29.543 105.529 29.9336C105.464 30.3893 105.432 30.9427 105.432 31.5938C105.367 32.7005 105.367 34.4909 105.432 36.9648C108.817 34.0352 111.649 31.7565 113.928 30.1289C116.271 28.5013 118.127 27.2318 119.494 26.3203C121.122 25.2786 122.391 24.5951 123.303 24.2695C125.712 23.8789 127.827 24.4323 129.65 25.9297C130.432 26.5807 131.18 27.4596 131.896 28.5664C132.613 29.6081 133.231 31.0078 133.752 32.7656C134.273 34.5234 134.663 36.6393 134.924 39.1133C135.184 41.5221 135.217 44.4193 135.021 47.8047C133.654 47.9349 132.417 48.0651 131.311 48.1953C130.269 48.3255 129.39 48.4232 128.674 48.4883C127.827 48.6185 127.046 48.6836 126.33 48.6836L123.693 48.9766C122.782 49.1068 121.643 49.237 120.275 49.3672C118.973 49.4323 117.378 49.5625 115.49 49.7578C118.225 47.5443 119.982 45.6237 120.764 43.9961C121.61 42.3034 121.968 40.9036 121.838 39.7969C121.708 38.5599 121.122 37.4857 120.08 36.5742C118.843 35.8581 117.508 35.5977 116.076 35.793C114.839 35.9232 113.407 36.4766 111.779 37.4531C110.152 38.4297 108.426 40.2526 106.604 42.9219C106.734 47.0885 106.864 50.5391 106.994 53.2734C107.189 56.0078 107.352 58.2214 107.482 59.9141C107.678 61.8672 107.84 63.3971 107.971 64.5039C108.166 65.4805 108.557 66.5221 109.143 67.6289C109.598 68.5404 110.249 69.5495 111.096 70.6562C111.942 71.763 113.049 72.8698 114.416 73.9766C111.551 73.8464 109.208 73.8464 107.385 73.9766C106.278 74.0417 105.301 74.1068 104.455 74.1719C103.544 74.3021 102.567 74.4323 101.525 74.5625C100.614 74.6927 99.5397 74.8229 98.3027 74.9531C97.1309 75.1484 95.8288 75.3438 94.3965 75.5391C94.9173 74.8229 95.3405 73.9766 95.666 73C95.9915 72.0885 96.252 71.2096 96.4473 70.3633C96.7077 69.3867 96.903 68.3776 97.0332 67.3359C97.0983 66.4245 97.1309 65.0573 97.1309 63.2344C97.196 61.4115 97.1634 59.3607 97.0332 57.082C96.9681 54.7383 96.8704 52.3294 96.7402 49.8555C96.61 47.3164 96.4473 44.9401 96.252 42.7266C96.0566 40.513 95.8288 38.5924 95.5684 36.9648C95.373 35.2721 95.1452 34.1003 94.8848 33.4492C94.5592 32.668 94.1686 31.8867 93.7129 31.1055C93.3223 30.3893 92.834 29.6406 92.248 28.8594C91.6621 28.013 91.0111 27.1341 90.2949 26.2227ZM170.301 73H164.944V67.6429H170.301V73ZM170.301 67.6429H164.944V62.2857H170.301V67.6429ZM164.944 67.6429H159.587V62.2857H164.944V67.6429ZM159.587 73H154.23V67.6429H159.587V73ZM154.23 73H148.872V67.6429H154.23V73ZM148.872 73H143.515V67.6429H148.872V73ZM148.872 67.6429H143.515V62.2857H148.872V67.6429ZM154.23 67.6429H148.872V62.2857H154.23V67.6429ZM143.515 67.6429H138.158V62.2857H143.515V67.6429ZM143.515 62.2857H138.158V56.9286H143.515V62.2857ZM143.515 40.8571H138.158V35.5H143.515V40.8571ZM148.872 40.8571H143.515V35.5H148.872V40.8571ZM148.872 62.2857H143.515V56.9286H148.872V62.2857ZM154.23 40.8571H148.872V35.5H154.23V40.8571ZM148.872 35.5H143.515V30.1429H148.872V35.5ZM154.23 35.5H148.872V30.1429H154.23V35.5ZM159.587 35.5H154.23V30.1429H159.587V35.5ZM164.944 35.5H159.587V30.1429H164.944V35.5ZM170.301 35.5H164.944V30.1429H170.301V35.5ZM170.301 40.8571H164.944V35.5H170.301V40.8571ZM164.944 40.8571H159.587V35.5H164.944V40.8571ZM170.301 46.2143H164.944V40.8571H170.301V46.2143ZM175.658 40.8571H170.301V35.5H175.658V40.8571ZM175.658 46.2143H170.301V40.8571H175.658V46.2143ZM175.658 51.5714H170.301V46.2143H175.658V51.5714ZM175.658 56.9286H170.301V51.5714H175.658V56.9286ZM175.658 62.2857H170.301V56.9286H175.658V62.2857ZM175.658 67.6429H170.301V62.2857H175.658V67.6429ZM170.301 62.2857H164.944V56.9286H170.301V62.2857ZM170.301 56.9286H164.944V51.5714H170.301V56.9286ZM170.301 51.5714H164.944V46.2143H170.301V51.5714ZM159.587 40.8571H154.23V35.5H159.587V40.8571ZM159.587 67.6429H154.23V62.2857H159.587V67.6429ZM170.301 67.6429H175.658V73H170.301V67.6429ZM159.587 46.2143H164.944V51.5714H159.587V46.2143ZM154.23 46.2143H159.587V51.5714H154.23V46.2143ZM148.872 46.2143H154.23V51.5714H148.872V46.2143ZM143.515 46.2143H148.872V51.5714H143.515V46.2143ZM138.158 51.5714H143.515V56.9286H138.158V51.5714ZM143.515 51.5714H148.872V56.9286H143.515V51.5714ZM159.587 51.5714H164.944V56.9286H159.587V51.5714ZM154.23 51.5714H159.587V56.9286H154.23V51.5714ZM148.872 51.5714H154.23V56.9286H148.872V51.5714ZM173.929 93.5C173.063 93.5 172.629 93.1333 172.629 92.4C172.629 91.7333 173.163 91.3333 174.229 91.2L175.629 91C176.963 90.8 177.963 90.4 178.629 89.8C179.229 89.2667 179.696 88.2667 180.029 86.8L193.329 29.4C193.463 28.8667 193.363 28.4667 193.029 28.2C192.763 27.8667 192.363 27.8667 191.829 28.2C191.163 28.5333 190.529 28.9 189.929 29.3C189.329 29.6333 188.729 30 188.129 30.4C187.529 30.8 187.029 30.9333 186.629 30.8C186.229 30.6 186.029 30.2667 186.029 29.8C186.029 29.3333 186.363 28.8667 187.029 28.4C188.896 27.1333 190.829 26.0333 192.829 25.1C193.963 24.5667 194.663 23.7 194.929 22.5L196.229 16.8C196.563 15.4 197.429 14.7 198.829 14.7H200.629C201.429 14.7 202.029 14.9333 202.429 15.4C202.829 15.8667 202.929 16.5333 202.729 17.4L202.029 20.3C201.829 21.4333 202.263 21.9 203.329 21.7C204.863 21.5 206.329 21.4 207.729 21.4C212.663 21.4 216.696 22.8 219.829 25.6C222.963 28.4 224.529 32.7 224.529 38.5C224.529 43.0333 223.696 47.4333 222.029 51.7C220.363 55.9 218.163 59.6667 215.429 63C212.696 66.3333 209.696 69 206.429 71C203.163 72.9333 199.896 73.9 196.629 73.9C194.829 73.9 193.129 73.5333 191.529 72.8C190.529 72.3333 189.929 72.6 189.729 73.6L186.729 86.8C186.396 88.2667 186.396 89.2333 186.729 89.7C187.129 90.1667 187.963 90.5 189.229 90.7L191.829 91.1C193.029 91.3 193.629 91.7 193.629 92.3C193.629 93.1 193.063 93.5 191.929 93.5H173.929ZM192.529 61.5C191.329 68.1 192.763 71.4 196.829 71.4C199.163 71.4 201.529 70.4333 203.929 68.5C206.329 66.5 208.563 63.8667 210.629 60.6C212.696 57.2667 214.363 53.5333 215.629 49.4C216.896 45.2667 217.529 41.0333 217.529 36.7C217.529 32.2333 216.563 29.0333 214.629 27.1C212.696 25.1 209.863 24.1 206.129 24.1C202.796 24.1 200.896 25.2333 200.429 27.5L192.529 61.5ZM219.449 93.5C218.582 93.5 218.149 93.1333 218.149 92.4C218.149 91.7333 218.682 91.3333 219.749 91.2L221.149 91C222.482 90.8 223.482 90.4 224.149 89.8C224.749 89.2667 225.215 88.2667 225.549 86.8L238.849 29.4C238.982 28.8667 238.882 28.4667 238.549 28.2C238.282 27.8667 237.882 27.8667 237.349 28.2C236.682 28.5333 236.049 28.9 235.449 29.3C234.849 29.6333 234.249 30 233.649 30.4C233.049 30.8 232.549 30.9333 232.149 30.8C231.749 30.6 231.549 30.2667 231.549 29.8C231.549 29.3333 231.882 28.8667 232.549 28.4C234.415 27.1333 236.349 26.0333 238.349 25.1C239.482 24.5667 240.182 23.7 240.449 22.5L241.749 16.8C242.082 15.4 242.949 14.7 244.349 14.7H246.149C246.949 14.7 247.549 14.9333 247.949 15.4C248.349 15.8667 248.449 16.5333 248.249 17.4L247.549 20.3C247.349 21.4333 247.782 21.9 248.849 21.7C250.382 21.5 251.849 21.4 253.249 21.4C258.182 21.4 262.215 22.8 265.349 25.6C268.482 28.4 270.049 32.7 270.049 38.5C270.049 43.0333 269.215 47.4333 267.549 51.7C265.882 55.9 263.682 59.6667 260.949 63C258.215 66.3333 255.215 69 251.949 71C248.682 72.9333 245.415 73.9 242.149 73.9C240.349 73.9 238.649 73.5333 237.049 72.8C236.049 72.3333 235.449 72.6 235.249 73.6L232.249 86.8C231.915 88.2667 231.915 89.2333 232.249 89.7C232.649 90.1667 233.482 90.5 234.749 90.7L237.349 91.1C238.549 91.3 239.149 91.7 239.149 92.3C239.149 93.1 238.582 93.5 237.449 93.5H219.449ZM238.049 61.5C236.849 68.1 238.282 71.4 242.349 71.4C244.682 71.4 247.049 70.4333 249.449 68.5C251.849 66.5 254.082 63.8667 256.149 60.6C258.215 57.2667 259.882 53.5333 261.149 49.4C262.415 45.2667 263.049 41.0333 263.049 36.7C263.049 32.2333 262.082 29.0333 260.149 27.1C258.215 25.1 255.382 24.1 251.649 24.1C248.315 24.1 246.415 25.2333 245.949 27.5L238.049 61.5ZM313.968 73H293.068C288.735 73 285.302 71.7333 282.768 69.2C280.302 66.6667 279.068 63.2 279.068 58.8V36.2C279.068 31.8 280.302 28.3333 282.768 25.8C285.302 23.2667 288.735 22 293.068 22H301.668C306.002 22 309.435 23.2667 311.968 25.8C314.502 28.3333 315.768 31.8 315.768 36.2V48.9C315.768 49.7 315.368 50.1 314.568 50.1H284.968C284.368 50.1 284.068 50.4 284.068 51V58.7C284.068 61.8333 284.868 64.2667 286.468 66C288.068 67.6667 290.402 68.5 293.468 68.5H313.968C314.702 68.5 315.068 68.8667 315.068 69.6V71.9C315.068 72.6333 314.702 73 313.968 73ZM284.968 46.1H309.868C310.468 46.1 310.768 45.8 310.768 45.2V36.3C310.768 33.1667 309.968 30.7667 308.368 29.1C306.768 27.3667 304.435 26.5 301.368 26.5H293.468C290.402 26.5 288.068 27.3667 286.468 29.1C284.868 30.7667 284.068 33.1667 284.068 36.3V45.2C284.068 45.8 284.368 46.1 284.968 46.1ZM343.387 72.9C340.254 72.9 337.52 71.8333 335.187 69.7C332.92 67.5667 331.187 64.8 329.987 61.4C328.854 58 328.287 54.4667 328.287 50.8C328.287 44.4 329.62 39 332.287 34.6C335.02 30.2 339.154 28 344.687 28C348.02 28 350.92 28.6 353.387 29.8C355.92 30.9333 359.22 32.8667 363.287 35.6L365.887 37.4C365.554 35.2 365.054 32.6667 364.387 29.8C363.72 26.9333 363.287 24.9667 363.087 23.9C361.954 18.7 361.12 14.8333 360.587 12.3C360.12 9.7 359.887 7.4 359.887 5.39999C359.887 1.86666 360.887 0.0999968 362.887 0.0999968C363.62 1.7 364.487 5.13333 365.487 10.4C366.487 15.6 367.754 22.7333 369.287 31.8C370.887 41.4 372.287 49.2333 373.487 55.3C374.687 61.3667 375.687 65.1667 376.487 66.7C376.487 68.2333 375.354 69 373.087 69C371.354 69 370.154 68 369.487 66C368.887 64 368.52 60.5 368.387 55.5H367.587C364.787 60.5667 361.154 64.7333 356.687 68C352.22 71.2667 347.787 72.9 343.387 72.9ZM344.687 68C347.42 68 350.354 66.8667 353.487 64.6C356.687 62.2667 359.387 59.4667 361.587 56.2C363.787 52.8667 364.887 49.8667 364.887 47.2V44.2C358.02 37 351.687 33.4 345.887 33.4C341.82 33.4 338.687 34.9 336.487 37.9C334.287 40.8333 333.187 44.7 333.187 49.5L333.287 51.6C333.687 56.6667 334.82 60.6667 336.687 63.6C338.554 66.5333 341.22 68 344.687 68Z" fill="white"/>
</svg>
